#define page_width 16
#define page_height 16
static unsigned char page_bits[] = {
   0x00, 0x00, 0xfe, 0x03, 0x02, 0x04, 0xfa, 0x08, 0x02, 0x10, 0xfa, 0x11,
   0x02, 0x10, 0xfa, 0x17, 0x02, 0x10, 0xfa, 0x13, 0x02, 0x10, 0xfa, 0x17,
   0x02, 0x10, 0x02, 0x10, 0xfe, 0x1f, 0x00, 0x00};
